Coordinates
version=1
nRows=8
nColumns=63
inDegrees=yes

Units are S.I. units (second, meters, Newtons, ...)
If the header above contains a line with 'inDegrees', this indicates whether rotational values are in degrees (yes) or radians (no).

endheader
time	pelvis_tilt	pelvis_list	pelvis_rotation	pelvis_tx	pelvis_ty	pelvis_tz	hip_flexion_r	hip_adduction_r	hip_rotation_r	knee_angle_r	knee_angle_r_beta	ankle_angle_r	subtalar_angle_r	mtp_angle_r	hip_flexion_l	hip_adduction_l	hip_rotation_l	knee_angle_l	knee_angle_l_beta	ankle_angle_l	subtalar_angle_l	mtp_angle_l	L5_S1_Flex_Ext	L5_S1_Lat_Bending	L5_S1_axial_rotation	L4_L5_Flex_Ext	L4_L5_Lat_Bending	L4_L5_axial_rotation	L3_L4_Flex_Ext	L3_L4_Lat_Bending	L3_L4_axial_rotation	L2_L3_Flex_Ext	L2_L3_Lat_Bending	L2_L3_axial_rotation	L1_L2_Flex_Ext	L1_L2_Lat_Bending	L1_L2_axial_rotation	L1_T12_Flex_Ext	L1_T12_Lat_Bending	L1_T12_axial_rotation	Abs_r3	Abs_r2	Abs_r1	Abs_t1	Abs_t2	neck_flexion	neck_bending	neck_rotation	arm_flex_r	arm_add_r	arm_rot_r	elbow_flex_r	pro_sup_r	wrist_flex_r	wrist_dev_r	arm_flex_l	arm_add_l	arm_rot_l	elbow_flex_l	pro_sup_l	wrist_flex_l	wrist_dev_l
      1.50000000	     -1.98287981	     -3.69910470	    103.08796409	      0.28295978	      0.85424993	      0.75954398	     -1.57932164	     -0.80640023	      8.19444097	      1.29118617	      0.02253545	     23.88739034	     -9.13471341	      0.00000000	      1.66720669	     -0.46011300	     15.26936455	      0.90979835	      0.01587898	     26.11272172	     -5.47098386	      0.00000000	      0.03851678	     -0.15434921	      0.51478665	      0.07152951	     -0.20528445	      0.54696081	      0.06327922	     -0.37528467	      0.54696081	      0.04402083	     -0.37528467	      0.45043832	      0.03576668	     -0.31474891	      0.41826415	      0.02200849	     -0.23908693	      0.38608998	      0.27512151	     -1.74602915	      2.86308889	      0.00000000	      0.00000000	     13.14516529	     -4.62967077	     -6.81251119	     10.97556073	    -16.15581353	     48.58738078	     59.77558865	     35.62436323	     -4.35347872	      5.21373337	     13.23303845	    -10.00227444	     41.19857509	     58.33159087	     66.29198211	     -2.15783294	     10.96047487
      1.52272727	     -1.80005857	     -3.71266277	    103.43092626	      0.28288187	      0.85415955	      0.75994354	     -1.54958111	     -0.59552289	      8.67452048	      1.15567653	      0.02017036	     23.56230065	    -10.08810717	      0.00000000	      1.69981322	     -0.63797399	     17.71989218	      0.77843484	      0.01358625	     25.37879600	     -8.50422884	      0.00000000	      0.01601040	     -0.13674977	      0.55429450	      0.02973291	     -0.18187719	      0.58893791	      0.02630349	     -0.33249339	      0.58893791	      0.01829829	     -0.33249339	      0.48500769	      0.01486726	     -0.27886013	      0.45036428	      0.00914834	     -0.21182539	      0.41572087	      0.11436069	     -1.54694073	      3.08281972	      0.00000000	      0.00000000	     12.52904552	     -6.38440532	     -9.22970616	     10.76164602	    -16.28451707	     48.22418896	     59.86519791	     36.75063441	     -3.43747226	      5.91566671	     13.29232928	     -9.74219559	     41.21772009	     57.89192926	     66.33594483	     -1.05179581	      9.97915688
      1.54545455	     -1.61843004	     -3.70920056	    103.75357152	      0.28293679	      0.85410776	      0.76019841	     -1.48648472	     -0.39339850	      7.66036094	      1.10730888	      0.01932619	     23.83856547	     -8.70242035	      0.00000000	      1.75316402	     -0.85093524	     17.64111816	      0.74197276	      0.01294987	     25.50175813	     -7.93571612	      0.00000000	      0.00373891	     -0.12008197	      0.57127478	      0.00694353	     -0.15970902	      0.60697946	      0.00614266	     -0.29196730	      0.60697946	      0.00427320	     -0.29196730	      0.49986544	      0.00347195	     -0.24487116	      0.46416076	      0.00213641	     -0.18600697	      0.42845609	      0.02670667	     -1.35839127	      3.17725897	      0.00000000	      0.00000000	     11.77090156	     -7.79288403	    -10.92094491	     10.55168118	    -16.25546184	     47.60533826	     59.87664416	     38.49395212	     -2.57460041	      7.05981987	     13.20524097	     -9.46668189	     40.84972486	     57.67868701	     67.20046481	     -0.61517432	      9.66350477
      1.56818182	     -1.44474159	     -3.61806832	    103.99263737	      0.28315210	      0.85409114	      0.76033878	     -1.51334156	     -0.16165842	      7.83903448	      1.02618090	      0.01791024	     23.72950146	     -8.94361836	      0.00000000	      1.69537602	     -1.08339123	     18.03698300	      0.69022043	      0.01204662	     25.49178039	     -8.14100362	      0.00000000	     -0.00762628	     -0.10803319	      0.62997429	     -0.01416276	     -0.14368415	      0.66934768	     -0.01252921	     -0.26267191	      0.66934768	     -0.00871607	     -0.26267191	      0.55122750	     -0.00708176	     -0.22030129	      0.51185411	     -0.00435766	     -0.16734342	      0.47248071	     -0.05447374	     -1.22209309	      3.50372799	      0.00000000	      0.00000000	     10.77754043	     -8.83567784	    -12.20164557	     10.12465179	    -16.16167839	     46.53681660	     59.94764403	     40.60258996	     -2.07578695	      7.71867613	     13.44196025	     -9.24981709	     41.18843055	     57.35146904	     66.16515533	     -0.37686723	      9.57162050
      1.59090909	     -1.25971682	     -3.45178079	    104.30905093	      0.28312067	      0.85418282	      0.76039896	     -1.61463403	      0.08370362	      6.81273251	      1.00514550	      0.01754310	     24.05040819	     -7.49912648	      0.00000000	      1.58196274	     -1.34334330	     17.42810755	      0.67445237	      0.01177141	     25.80898013	     -6.80326520	      0.00000000	     -0.01376520	     -0.09705708	      0.66294421	     -0.02556336	     -0.12908591	      0.70437822	     -0.02261485	     -0.23598458	      0.70437822	     -0.01573225	     -0.23598458	      0.58007618	     -0.01278237	     -0.19791879	      0.53864217	     -0.00786544	     -0.15034141	      0.49720815	     -0.09832348	     -1.09792908	      3.68709679	      0.00000000	      0.00000000	      9.64366114	     -9.19522745	    -12.49367586	      9.72421188	    -16.01987169	     45.47445029	     59.92670829	     42.20967251	     -1.56396688	      8.24615862	     13.61278108	     -8.94525237	     41.25892556	     56.96958198	     66.74332828	     -0.24328408	      9.48485782
      1.61363636	     -1.03594430	     -3.15097118	    104.61707123	      0.28292442	      0.85433255	      0.76044507	     -1.87709231	      0.42111782	      7.64779666	      0.93824007	      0.01637538	     23.61896610	     -8.97293202	      0.00000000	      1.30294340	     -1.65761476	     19.26261521	      0.58859583	      0.01027294	     25.39639339	     -8.98746298	      0.00000000	     -0.02100964	     -0.07661416	      0.64237855	     -0.03901701	     -0.10189683	      0.68252721	     -0.03451674	     -0.18627967	      0.68252721	     -0.02401192	     -0.18627967	      0.56208123	     -0.01950955	     -0.15623160	      0.52193257	     -0.01200491	     -0.11867534	      0.48178391	     -0.15006977	     -0.86667472	      3.57271677	      0.00000000	      0.00000000	      8.59512665	     -8.97801921	    -11.37702990	      9.88340377	    -16.08730871	     45.67205665	     59.76301408	     43.63550936	     -1.58464206	      7.98283841	     13.90203196	     -8.83706841	     41.67664003	     56.59296281	     65.46766047	      0.11624714	      9.66068089
      1.63636364	     -0.82273563	     -2.88785795	    104.95970498	      0.28256266	      0.85454094	      0.76020094	     -2.09701892	      0.71549849	      6.29930075	      0.97351467	      0.01699104	     23.92258956	     -7.37565240	      0.00000000	      1.09356847	     -1.97338438	     18.17032020	      0.59031819	      0.01030300	     25.97597069	     -6.82828767	      0.00000000	     -0.01351519	     -0.06157652	      0.61037292	     -0.02509905	     -0.08189678	      0.64852123	     -0.02220410	     -0.14971716	      0.64852123	     -0.01544651	     -0.14971716	      0.53407631	     -0.01255020	     -0.12556684	      0.49592800	     -0.00772258	     -0.09538203	      0.45777969	     -0.09653763	     -0.69656594	      3.39471109	      0.00000000	      0.00000000	      7.69719794	     -8.18238000	     -9.53837309	      9.73162223	    -15.96426328	     45.17464507	     59.58915285	     44.06523386	     -1.14077693	      8.48813037	     13.99659826	     -8.62321253	     41.48612188	     56.36564737	     67.47210740	      0.29172139	     10.21839881
      1.65909091	     -0.62718177	     -2.61387671	    105.06995252	      0.28243891	      0.85479133	      0.75989350	     -2.33603253	      0.99409682	      7.05216734	      0.96313963	      0.01680996	     23.56419694	     -8.44223836	      0.00000000	      0.80400739	     -2.25054598	     20.13923985	      0.51296742	      0.00895297	     25.44182181	     -9.51616910	      0.00000000	     -0.01302921	     -0.04072853	      0.57578969	     -0.02419654	     -0.05416894	      0.61177655	     -0.02140569	     -0.09902734	      0.61177655	     -0.01489108	     -0.09902734	      0.50381598	     -0.01209892	     -0.08305361	      0.46782913	     -0.00744489	     -0.06308849	      0.43184227	     -0.09306633	     -0.46072922	      3.20236953	      0.00000000	      0.00000000	      7.11905702	     -6.98854642	     -6.52175960	      9.96596636	    -15.99806315	     45.75302222	     59.37824853	     43.35975201	     -1.16554304	      8.20924751	     14.15080214	     -8.51871750	     41.42067299	     56.20311396	     67.10313658	      0.78213176	     11.16791629
